<svg xmlns="http://www.w3.org/2000/svg" fill="none" viewBox="0 0 36 36">
  <path fill="#000" d="M22.25 4h-8.5a1 1 0 0 0-.96.73l-5.54 19.4a.5.5 0 0 0 .62.62l5.05-1.44a2 2 0 0 0 1.38-1.4l3.22-11.66a.5.5 0 0 1 .96 0l3.22 11.67a2 2 0 0 0 1.38 1.39l5.05 1.44a.5.5 0 0 0 .62-.62l-5.54-19.4a1 1 0 0 0-.96-.73Z"/>
  <path fill="url(#gradient)" d="M18 28a7.63 7.63 0 0 1-5-2c-1.4 2.1-.35 4.35.6 5.55.14.17.41.07.47-.15.44-1.8 2.93-1.22 2.93.6 0 2.25.75 4 2 4s2-1.75 2-4c0-1.82 2.5-2.4 2.93-.6.06.22.33.32.47.15.95-1.2 2-3.45.6-5.55a7.63 7.63 0 0 1-5 2Z"/>
  <defs>
    <linearGradient id="gradient" x1="18" x2="18" y1="28" y2="36" gradientUnits="userSpaceOnUse">
      <stop stop-color="#FF1639"/>
      <stop offset="1" stop-color="#FF1639" stop-opacity="0"/>
    </linearGradient>
  </defs>
</svg>